<svg xmlns="http://www.w3.org/2000/svg" viewBox="0 0 1024 1024">
  <path fill="#f4780b" d="M204.8,921.521C80.472,828.071 0,679.359 0,512C0,229.42 229.42,0 512,0C794.58,0 1024,229.42 1024,512C1024,794.58 794.58,1024 512,1024C476.936,1024 442.69,1020.47 409.6,1013.74L409.6,512L614.4,512L614.4,307.2L409.6,307.2C296.568,307.2 204.8,398.968 204.8,512L204.8,921.521Z"/>
  <path fill="#f6a85a" d="M158.12,881.88C60.703,788.646 0,657.356 0,512C0,229.42 229.42,0 512,0C657.356,0 788.646,60.703 881.88,158.12C789.913,70.102 665.225,16 528,16C245.42,16 16,245.42 16,528C16,665.225 70.102,789.913 158.12,881.88Z"/>
  <path fill="#f6a85a" d="M425.6,1016.73C420.238,1015.81 414.904,1014.82 409.6,1013.74L409.6,512L614.4,512L614.4,323.2L630.4,323.2L630.4,528L425.6,528L425.6,1016.73Z"/>
  <g transform="translate(16 16)">
    <path fill="#914d08" d="M865.88,142.12C953.898,234.087 1008,358.775 1008,496C1008,778.58 778.58,1008 496,1008C466.556,1008 437.69,1005.51 409.6,1000.73L409.6,987.191C432.616,990.361 456.118,992 480,992C762.58,992 992,762.58 992,480C992,346.843 941.058,225.49 857.617,134.383C860.399,136.932 863.154,139.511 865.88,142.12Z"/>
    <path fill="#f4780b" d="M134.383,857.617C50.942,766.51 0,645.157 0,512C0,229.42 229.42,0 512,0C645.157,0 766.51,50.942 857.617,134.383C941.058,225.49 992,346.843 992,480C992,762.58 762.58,992 480,992C456.118,992 432.616,990.361 409.6,987.191L409.6,512L614.4,512L614.4,291.2L393.6,291.2C280.568,291.2 188.8,382.968 188.8,496L188.8,901.073C169.676,887.816 151.496,873.289 134.383,857.617Z"/>
    <path fill="#f4780b" d="M188.8,905.521C172.454,893.235 156.867,879.993 142.12,865.88C139.511,863.154 136.932,860.399 134.383,857.617C151.496,873.289 169.676,887.816 188.8,901.073L188.8,905.521Z"/>
    <path fill="#914d08" d="M614.4,307.2L409.6,307.2C296.568,307.2 204.8,398.968 204.8,512L204.8,921.521C182.414,904.694 161.449,886.076 142.12,865.88C156.867,879.993 172.454,893.235 188.8,905.521L188.8,496C188.8,382.968 280.568,291.2 393.6,291.2L614.4,291.2L614.4,307.2Z"/>
  </g>
</svg>